<svg width="30" height="30" viewBox="0 0 30 30" fill="none" xmlns="http://www.w3.org/2000/svg">
<g clip-path="url(#clip0_138_416)">
<path d="M14.973 0C19.186 0 22.741 1.446 25.633 4.34C28.544 7.25 30 10.803 30 15C30 19.215 28.57 22.723 25.713 25.526C22.678 28.51 19.098 30 14.973 30C10.919 30 7.402 28.526 4.42 25.58C1.474 22.633 0 19.107 0 15C0 10.893 1.474 7.34 4.42 4.34C7.313 1.446 10.83 0 14.973 0ZM15.027 2.706C11.617 2.706 8.732 3.902 6.375 6.295C3.928 8.795 2.705 11.697 2.705 15.001C2.705 18.322 3.919 21.197 6.347 23.625C8.776 26.054 11.669 27.267 15.026 27.267C18.365 27.267 21.276 26.045 23.758 23.597C26.116 21.33 27.294 18.464 27.294 14.999C27.294 11.589 26.097 8.688 23.705 6.294C21.313 3.902 18.42 2.706 15.027 2.706ZM19.045 11.276V17.41H17.33V24.696H12.67V17.41H10.956V11.276C10.9536 11.1491 10.9772 11.023 11.0253 10.9055C11.0735 10.7881 11.1452 10.6817 11.236 10.593C11.3248 10.502 11.4313 10.4302 11.549 10.3818C11.6666 10.3335 11.7929 10.3098 11.92 10.312H18.081C18.331 10.312 18.555 10.405 18.751 10.592C18.8454 10.6789 18.9203 10.7848 18.971 10.9026C19.0216 11.0205 19.0469 11.1477 19.045 11.276ZM12.91 7.42C12.91 6.01 13.606 5.304 15 5.304C16.394 5.304 17.09 6.009 17.09 7.42C17.09 8.813 16.393 9.51 15 9.51C13.607 9.51 12.91 8.813 12.91 7.42Z" fill="white"/>
</g>
<defs>
<clipPath id="clip0_138_416">
<rect width="30" height="30" fill="white"/>
</clipPath>
</defs>
</svg>
