<svg width="30" height="30" viewBox="0 0 30 30" fill="none" xmlns="http://www.w3.org/2000/svg">
<g clip-path="url(#clip0_138_412)">
<path d="M14.973 0C19.169 0 22.723 1.455 25.633 4.366C28.544 7.26 30 10.804 30 15C30 19.197 28.57 22.714 25.713 25.553C22.696 28.518 19.115 30 14.973 30C10.919 30 7.402 28.527 4.42 25.58C1.474 22.634 0 19.108 0 15C0 10.912 1.474 7.367 4.42 4.367C7.33 1.455 10.848 0 14.973 0ZM15.027 2.706C11.617 2.706 8.732 3.911 6.375 6.322C3.928 8.805 2.705 11.697 2.705 15C2.705 18.34 3.919 21.214 6.347 23.625C8.776 26.055 11.669 27.268 15.026 27.268C18.365 27.268 21.276 26.045 23.758 23.598C26.116 21.313 27.294 18.447 27.294 15C27.294 11.572 26.097 8.679 23.705 6.322C21.33 3.91 18.437 2.706 15.027 2.706ZM8.33 12.884C8.616 11.044 9.356 9.62 10.553 8.611C11.749 7.603 13.204 7.098 14.919 7.098C17.275 7.098 19.151 7.858 20.544 9.375C21.937 10.892 22.634 12.839 22.634 15.214C22.634 17.518 21.91 19.433 20.464 20.959C19.017 22.485 17.143 23.249 14.838 23.249C13.142 23.249 11.678 22.741 10.446 21.722C9.213 20.704 8.473 19.258 8.222 17.383H12C12.09 19.205 13.187 20.116 15.295 20.116C16.348 20.116 17.197 19.66 17.839 18.75C18.483 17.84 18.804 16.624 18.804 15.107C18.804 13.517 18.51 12.308 17.921 11.477C17.331 10.647 16.484 10.232 15.376 10.232C13.375 10.232 12.25 11.116 12.001 12.883H13.099L10.126 15.856L7.153 12.883L8.33 12.884Z" fill="white"/>
</g>
<defs>
<clipPath id="clip0_138_412">
<rect width="30" height="30" fill="white"/>
</clipPath>
</defs>
</svg>
