<svg width="123" height="125" viewBox="0 0 123 125" fill="none" xmlns="http://www.w3.org/2000/svg">
<path d="M78.7313 61.777C89.4567 61.777 98.3565 53.9257 98.3565 44.0084C98.3565 34.091 89.6849 26.2398 78.7313 26.2398C67.7777 26.2398 59.1061 34.5042 59.1061 44.215C59.1061 53.9257 68.0059 61.777 78.7313 61.777ZM78.7313 35.7439C83.7517 35.7439 88.0875 39.4629 88.0875 44.215C88.0875 48.9671 83.9799 52.6861 78.7313 52.6861C73.4827 52.6861 69.3751 48.9671 69.3751 44.215C69.3751 39.4629 73.4827 35.7439 78.7313 35.7439Z" fill="black"/>
<path d="M108.623 0H14.1484C6.38961 0 0 5.78512 0 12.8099V111.983C0 119.008 6.38961 125 14.3766 125H108.623C116.382 125 123 119.215 123 111.983V12.8099C122.772 5.78512 116.382 0 108.623 0ZM14.1484 9.29752H108.395C110.677 9.29752 112.503 10.9504 112.503 13.0165V85.124L95.8442 72.7273C91.0519 69.2149 84.2059 69.4215 79.8701 73.3471L61.1577 90.0826L37.1967 70.6612C32.6326 66.9421 25.7866 66.9421 21.2226 70.6612L10.269 79.5454V12.8099C10.269 10.7438 12.0946 9.29752 14.1484 9.29752ZM108.623 115.702H14.1484C11.8664 115.702 10.0408 114.05 10.0408 111.983V91.9421L27.8404 77.2727C28.525 76.6529 29.4378 76.6529 30.1224 77.2727L57.7347 99.5868C58.6475 100.413 60.0167 100.826 61.1577 100.826C62.5269 100.826 63.6679 100.413 64.8089 99.3802L86.9443 79.5454C87.6289 78.9256 88.5417 78.9256 89.2263 79.5454L112.275 96.9008V111.983C112.503 114.05 110.677 115.702 108.623 115.702Z" fill="black"/>
</svg>
