<svg width="30" height="30" viewBox="0 0 30 30" fill="none" xmlns="http://www.w3.org/2000/svg">
<g clip-path="url(#clip0_138_414)">
<path d="M14.973 0C19.187 0 22.741 1.446 25.633 4.339C28.544 7.232 30 10.786 30 15C30 19.215 28.571 22.723 25.713 25.527C22.678 28.51 19.097 30 14.973 30C10.901 30 7.383 28.518 4.42 25.554C1.474 22.607 0 19.09 0 15C0 10.893 1.474 7.34 4.42 4.34C7.313 1.446 10.83 0 14.973 0ZM3.375 10.956C2.929 12.188 2.705 13.536 2.705 15.001C2.705 18.322 3.919 21.197 6.347 23.625C8.794 26.037 11.687 27.242 15.026 27.242C18.401 27.242 21.311 26.019 23.759 23.572C24.634 22.733 25.32 21.858 25.82 20.946L20.169 18.428C19.9883 19.3486 19.479 20.1721 18.736 20.745C17.976 21.343 17.079 21.688 16.043 21.776V24.08H14.303V21.776C12.642 21.759 11.123 21.161 9.749 19.982L11.812 17.893C12.793 18.803 13.91 19.259 15.16 19.259C15.677 19.259 16.12 19.143 16.486 18.91C16.852 18.679 17.036 18.295 17.036 17.759C17.036 17.383 16.901 17.079 16.634 16.848L15.187 16.231L13.42 15.427L11.036 14.383L3.375 10.956ZM15.027 2.678C11.617 2.678 8.732 3.884 6.375 6.294C5.785 6.884 5.232 7.554 4.715 8.304L10.447 10.875C10.6882 10.1006 11.1899 9.43354 11.867 8.987C12.562 8.514 13.375 8.25 14.304 8.197V5.893H16.045V8.197C17.421 8.268 18.67 8.732 19.795 9.589L17.84 11.6C17 11.01 16.143 10.716 15.268 10.716C14.804 10.716 14.388 10.806 14.023 10.983C13.657 11.162 13.473 11.466 13.473 11.894C13.473 12.019 13.518 12.144 13.607 12.269L15.509 13.127L16.822 13.717L19.232 14.787L26.919 18.216C27.169 17.162 27.294 16.091 27.294 15.002C27.294 11.555 26.098 8.653 23.706 6.295C21.331 3.885 18.436 2.679 15.026 2.679L15.027 2.678Z" fill="white"/>
</g>
<defs>
<clipPath id="clip0_138_414">
<rect width="30" height="30" fill="white"/>
</clipPath>
</defs>
</svg>
